<?xml version="1.0" encoding="utf-8"?>
<!-- Generator: Adobe Illustrator 24.1.2, SVG Export Plug-In . SVG Version: 6.00 Build 0)  -->
<svg version="1.1" id="Layer_1" xmlns="http://www.w3.org/2000/svg" xmlns:xlink="http://www.w3.org/1999/xlink" x="0px" y="0px"
	 viewBox="0 0 220 220" style="enable-background:new 0 0 220 220;" xml:space="preserve">
<style type="text/css">
	.st0{fill:#F3B137;}
	.st1{fill:#FFFFFF;}
	.st2{fill:#F1B137;}
	.st3{fill:#21344A;}
	.st4{fill:#F6A216;}
	.st5{fill:none;stroke:#F3F0F0;stroke-width:1.6398;stroke-linecap:round;stroke-linejoin:round;stroke-miterlimit:10;}
	.st6{fill:none;stroke:#21344A;stroke-width:2.1864;stroke-linecap:round;stroke-linejoin:round;stroke-miterlimit:10;}
	.st7{fill:none;stroke:#21344A;stroke-width:2.1864;stroke-miterlimit:10;}
	.st8{fill:none;stroke:#21344A;stroke-width:1.3665;stroke-miterlimit:10;}
	.st9{fill:none;stroke:#21344A;stroke-width:2.733;stroke-linecap:round;stroke-miterlimit:10;}
	.st10{fill:none;stroke:#3D3D3D;stroke-width:19.0683;stroke-linecap:round;stroke-linejoin:round;stroke-miterlimit:10;}
	.st11{fill:none;}
	.st12{fill:none;stroke:#3D3D3D;stroke-width:5.8479;stroke-linecap:round;stroke-linejoin:round;stroke-miterlimit:10;}
	.st13{fill:none;stroke:#A53923;stroke-width:1.5;stroke-linecap:round;stroke-linejoin:round;stroke-miterlimit:10;}
	.st14{fill:none;stroke:#3D3D3D;stroke-width:11.9497;stroke-linecap:round;stroke-linejoin:round;stroke-miterlimit:10;}
	.st15{fill:none;stroke:#3D3D3D;stroke-width:11.0668;stroke-linecap:round;stroke-linejoin:round;stroke-miterlimit:10;}
	.st16{fill:none;stroke:#3D3D3D;stroke-width:10.1027;stroke-linecap:round;stroke-linejoin:round;stroke-miterlimit:10;}
	.st17{fill:#5E888C;}
	.st18{fill:none;stroke:#5E888C;stroke-width:5.8222;}
	.st19{fill:#9A9EA4;}
	.st20{fill:none;stroke:#9A9EA4;stroke-width:5.8222;}
	.st21{fill:none;stroke:#C4C4C4;stroke-width:10.2256;stroke-linecap:round;stroke-linejoin:round;}
	.st22{fill:#FFFFFF;stroke:#5E888C;stroke-width:2.0693;}
	.st23{fill:none;stroke:#5E888C;stroke-width:10.2256;stroke-linecap:round;stroke-linejoin:round;}
	.st24{fill:none;stroke:#FFFFFF;stroke-width:5.1732;}
	.st25{fill:none;stroke:#3D3D3D;stroke-width:24.2259;stroke-linecap:round;stroke-linejoin:round;stroke-miterlimit:10;}
	.st26{fill:#3D3D3D;}
	.st27{fill:none;stroke:#3D3D3D;stroke-width:4.7957;stroke-linecap:round;stroke-linejoin:round;stroke-miterlimit:10;}
	.st28{fill:none;stroke:#8C9197;stroke-width:6.5809;stroke-linecap:round;stroke-linejoin:round;stroke-miterlimit:10;}
	.st29{fill:#D8D5D5;}
	.st30{fill:none;stroke:#8C9197;stroke-width:6.293;stroke-linecap:round;stroke-linejoin:round;}
	.st31{clip-path:url(#SVGID_2_);}
	.st32{fill:#FFFFFF;stroke:#E6E6E6;stroke-width:9.4037;stroke-miterlimit:10;}
	.st33{fill:#FFFFFF;stroke:#0E1A26;stroke-width:3.5264;stroke-linecap:round;stroke-linejoin:round;stroke-miterlimit:10;}
	.st34{fill:#3F6473;stroke:#0E1A26;stroke-width:3.5264;stroke-linecap:round;stroke-linejoin:round;stroke-miterlimit:10;}
	.st35{fill:#E5E5E5;}
	.st36{fill:#D44928;}
	.st37{fill:none;stroke:#0E1A26;stroke-width:7.1234;}
	.st38{fill:none;stroke:#848484;stroke-width:6.1502;stroke-linecap:round;stroke-linejoin:round;stroke-miterlimit:10;}
	.st39{fill:#E5E5E5;stroke:#848484;stroke-width:6.1502;stroke-linecap:round;stroke-linejoin:round;stroke-miterlimit:10;}
	.st40{fill:#C4C4C4;}
	.st41{fill:none;stroke:#8C9197;stroke-width:6.4031;stroke-linecap:round;stroke-linejoin:round;stroke-miterlimit:10;}
	.st42{fill:none;stroke:#8C9197;stroke-width:5.0607;stroke-linecap:round;stroke-linejoin:round;stroke-miterlimit:10;}
</style>
<g>
	<g id="XMLID_2_">
		<g>
			<path class="st0" d="M-44.8-442.2c-3.9-46.8-45.2-82.1-93-80.2c47.9-1.8,89.2,33.3,93.1,80.1c0.2,2.4,0.3,4.8,0.3,7.2
				c0,23.2-9.5,44.6-25.1,60.4C-52.3-392.1-42.6-416.3-44.8-442.2z"/>
			<path class="st1" d="M-65.6-438.7c0.4,5,0.3,10-0.4,14.8c-0.1,0.4-0.1,0.7-0.2,1.1c-0.1,0.9-0.3,1.8-0.5,2.7
				c-0.4,2.2-1,4.4-1.7,6.6c-0.1,0.4-0.3,0.9-0.4,1.3l-44-14.3v-18.5l39.8-18.8c0.9,1.8,1.8,3.6,2.6,5.4c0.1,0.3,0.2,0.6,0.4,0.9
				c0.3,0.9,0.7,1.7,1,2.6c0.2,0.5,0.3,1,0.5,1.5C-67.1-448.8-66.1-443.9-65.6-438.7z"/>
			<path class="st0" d="M-65.5-438.9c0,0.2,0,0.4,0,0.6c0-0.2,0-0.3,0-0.5c-0.5-5.1-1.5-10-3-14.7c-0.2-0.5-0.3-1-0.5-1.5
				c-0.3-0.9-0.6-1.8-1-2.6c-0.1-0.3-0.2-0.6-0.4-0.9c-0.8-1.9-1.6-3.7-2.6-5.4l0.1-0.1C-68.8-456.4-66.3-447.9-65.5-438.9z"/>
			<path class="st1" d="M-65.5-438.3c0.3,4.9,0.1,9.7-0.6,14.3c0.7-4.8,0.8-9.8,0.4-14.8c-0.4-5.1-1.4-10-2.9-14.7
				c1.5,4.7,2.5,9.6,3,14.7C-65.5-438.6-65.5-438.4-65.5-438.3z"/>
			<path class="st1" d="M-112.8-401v-25.6l44,14.3c-1.6,4.8-3.8,9.4-6.4,13.8c-0.3,0.5-0.6,0.9-0.9,1.4c-0.9,1.4-1.9,2.8-2.9,4.1
				c-6.5,8.5-15,15.5-24.9,20.2l-14.5-28.3H-112.8z"/>
			<path class="st1" d="M-70.1-457.6c0.3,0.9,0.7,1.7,1,2.6C-69.4-455.9-69.7-456.8-70.1-457.6z"/>
			<path class="st0" d="M-72.9-464.1C-72.8-464-72.8-464-72.9-464.1l-0.1,0.1c0,0,0,0,0,0L-72.9-464.1z"/>
			<path class="st1" d="M-73-464C-73-464-73-464-73-464L-73-464C-73-464-73-464-73-464z"/>
			<path class="st1" d="M-73-463.9c0.9,1.8,1.8,3.6,2.6,5.4C-71.2-460.4-72-462.2-73-463.9L-73-463.9z"/>
			<path class="st1" d="M-73-463.9l-39.8,18.8v0L-73-463.9L-73-463.9C-73-464-73-464-73-463.9z"/>
			<path class="st1" d="M-73-464l-39.8,18.8v-26.5h-9.1l8.9-25.8c3.8,1.2,7.4,2.8,10.8,4.6c0,0,0,0,0,0c1,0.5,2,1.1,2.9,1.6
				c0,0,0,0,0,0c10.6,6.2,19.4,15.1,25.4,25.8c0.1,0.2,0.2,0.4,0.3,0.5C-73.3-464.6-73.2-464.3-73-464z"/>
			<path class="st1" d="M-75.2-398.6c-0.3,0.5-0.6,1-0.9,1.4C-75.8-397.6-75.5-398.1-75.2-398.6z"/>
			<path class="st0" d="M-112.9-497.6c13.4,4.4,25.3,12.8,33.7,23.8c-5.4-7-12.2-13-20-17.5c0,0,0,0,0,0c-1-0.6-1.9-1.1-2.9-1.6
				c0,0,0,0,0,0c-3.5-1.8-7.1-3.3-10.8-4.6v0L-112.9-497.6z"/>
			<path class="st0" d="M-99.2-491.3c7.7,4.5,14.5,10.5,20,17.5c2,2.6,3.8,5.4,5.5,8.4C-79.8-476.2-88.6-485-99.2-491.3z"/>
			<path class="st0" d="M-102.1-492.9c1,0.5,2,1.1,2.9,1.6C-100.2-491.8-101.1-492.4-102.1-492.9z"/>
			<polygon class="st1" points="-118.5,-401 -104,-372.7 -118.2,-400.3 -118.5,-401 			"/>
			<path class="st1" d="M-118.2-400.3l14.2,27.6c0,0,0,0,0,0h0L-118.2-400.3z"/>
			<path class="st1" d="M-104-372.7c9.9-4.7,18.4-11.7,24.9-20.2c-6.5,8.5-15,15.6-24.9,20.4L-104-372.7
				C-104-372.7-104-372.7-104-372.7z"/>
			<path class="st1" d="M-118.2-400.3l14.2,27.6c-5.8,2.9-12,4.9-18.7,6c-1.7,0.3-3.4,0.5-5.1,0.7c-0.6,0.1-1.1,0.1-1.7,0.1
				c-9.7,0.7-19-0.5-27.7-3.3l10.9-31.9h4.9h14.3h8.6L-118.2-400.3z"/>
			<path class="st0" d="M-113-497.5c3.8,1.2,7.4,2.8,10.8,4.6C-105.6-494.7-109.2-496.2-113-497.5z"/>
			<path class="st1" d="M-112.8-426.6v25.6h-5.7l-8.6-16.7v-3.2c3.2-0.7,5.7-3.4,5.7-6.8v-1.6L-112.8-426.6L-112.8-426.6z"/>
			<polygon class="st1" points="-112.8,-445.1 -112.8,-426.6 -121.4,-429.4 -121.4,-441.1 			"/>
			<polygon class="st1" points="-112.8,-445.2 -112.8,-445.1 -121.4,-441.1 -121.4,-441.1 			"/>
			<path class="st1" d="M-112.8-471.7v26.5l-8.6,4.1v-3.9c0-3.4-2.5-6.2-5.7-6.8v-4.9l5.2-14.9H-112.8z"/>
			<path class="st0" d="M-113.1-497.5C-113-497.5-113-497.5-113.1-497.5L-113.1-497.5C-113-497.5-113-497.5-113.1-497.5
				L-113.1-497.5z"/>
			<path class="st0" d="M-113.1-497.5L-113.1-497.5c-0.4-0.1-0.9-0.3-1.3-0.4C-113.9-497.8-113.5-497.6-113.1-497.5z"/>
			<polygon class="st1" points="-118.5,-401 -118.5,-401 -127.1,-417.7 -127.1,-417.7 			"/>
			<polygon class="st1" points="-127.1,-417.6 -118.5,-401 -127.1,-401 			"/>
			<path class="st2" d="M-121.4-429.4v1.6c0,3.4-2.5,6.2-5.7,6.8v-10.3L-121.4-429.4z"/>
			<polygon class="st2" points="-121.4,-429.4 -121.4,-429.4 -127.1,-431.2 			"/>
			<polygon class="st2" points="-121.4,-441.1 -121.4,-429.4 -127.1,-431.2 -127.1,-431.3 -127.1,-438.4 -127.1,-438.4 			"/>
			<polygon class="st2" points="-121.4,-441.1 -121.4,-441.1 -127.1,-438.4 			"/>
			<path class="st2" d="M-121.4-445v3.9l-5.7,2.7v-13.5C-123.9-451.2-121.4-448.4-121.4-445z"/>
			<polygon class="st1" points="-122,-471.7 -127.1,-457 -127.1,-471.7 			"/>
			<path class="st1" d="M-122.7-366.7c-1.7,0.3-3.4,0.5-5.1,0.7C-126.1-366.2-124.4-366.4-122.7-366.7z"/>
			<polygon class="st2" points="-127.1,-431.3 -127.1,-431.2 -132,-432.8 			"/>
			<polygon class="st1" points="-127.1,-417.6 -127.1,-401 -141.4,-401 -141.4,-415.3 -139.5,-420.8 -139.5,-420.8 -128.7,-420.8 
							"/>
			<polygon class="st1" points="-127.1,-417.7 -127.1,-417.7 -128.7,-420.8 			"/>
			<path class="st2" d="M-127.1-431.2v10.3c-0.5,0.1-1,0.2-1.5,0.2h-0.1l-4.1-8l-0.4-0.7h0.4c0.4,0,0.8-0.4,0.8-0.7v-2.6
				L-127.1-431.2z"/>
			<path class="st2" d="M-127.1-438.4v7.1l-4.9-1.6v0v-2.6c0.5-0.3,0.9-0.7,1.3-1.2L-127.1-438.4z"/>
			<path class="st2" d="M-130-439c0-1.5-0.8-2.8-2.1-3.5l3.3-9.6h0.1c0.5,0,1,0.1,1.5,0.2v13.5v0l-3.7,1.7
				C-130.3-437.3-130-438.1-130-439z"/>
			<path class="st1" d="M-127.1-456.8v4.9c-0.5-0.1-1-0.2-1.5-0.2h-0.1L-127.1-456.8z"/>
			<path class="st1" d="M-127.1-471.7v14.7l-1.7,5h-11c-0.5,0-1,0.1-1.5,0.1v-19.8H-127.1z"/>
			<path class="st1" d="M-128.6-420.8c0.5,0,1,0,1.5-0.2v3.2L-128.6-420.8L-128.6-420.8z"/>
			<polygon class="st2" points="-132.8,-428.8 -128.7,-420.8 -128.7,-420.8 			"/>
			<polygon class="st2" points="-132.8,-428.8 -128.7,-420.8 -128.7,-420.8 -133.2,-429.5 -133.2,-429.5 			"/>
			<path class="st2" d="M-128.7-452l-3.3,9.6c0,0-0.1,0-0.1,0L-128.7-452L-128.7-452z"/>
			<path class="st2" d="M-128.8-452l-3.3,9.5c-0.6-0.4-1.3-0.5-2.1-0.5c-2.1,0-3.9,1.6-4.1,3.5l-3.1-6v0v-6.4c0.5-0.1,1-0.1,1.5-0.1
				H-128.8z"/>
			<polygon class="st3" points="-132,-432.9 -132,-432.8 -135.1,-433.8 -135.1,-433.8 			"/>
			<path class="st3" d="M-133.2-429.5l-2-3.9v0l0.1-0.4l3,1v2.6c0,0.4-0.4,0.7-0.8,0.7H-133.2z"/>
			<path class="st3" d="M-132.7-440.7l-1.9,5.4l1.1-3.6l0,0l0.6-1.7l0.4-1.1l0.3-0.8c0,0,0.1,0,0.1,0l-0.2,0.6L-132.7-440.7z"/>
			<polygon class="st3" points="-132.4,-441.7 -132.8,-440.6 -133.4,-438.9 -132.8,-440.7 			"/>
			<polygon class="st3" points="-135.2,-433.5 -133.2,-429.5 -133.2,-429.5 -135.2,-433.4 			"/>
			<path class="st1" d="M-140.6-500.7c8.2-0.6,16.2,0.1,23.7,2c0.9,0.2,1.8,0.5,2.6,0.7c0.4,0.1,0.9,0.3,1.3,0.4l-9,25.8h-5.1h-14.3
				h-13.4l-11.3-22.1C-158.5-497.6-149.9-500-140.6-500.7z"/>
			<path class="st3" d="M-134.4-434.9l3.7-1.7c-0.3,0.5-0.8,0.9-1.3,1.2v2.6l-3-1l0.4-1L-134.4-434.9z"/>
			<polygon class="st3" points="-134.4,-434.9 -134.7,-434.8 -134.7,-434.8 			"/>
			<path class="st3" d="M-134.5-435.3l1.9-5.4l0.4-1.1l0.2-0.6c1.2,0.7,2.1,2,2.1,3.5c0,0.9-0.3,1.7-0.8,2.3l-3.7,1.7l-0.2,0.1
				l0.1-0.4L-134.5-435.3z"/>
			<polygon class="st3" points="-134.7,-434.8 -134.7,-434.8 -134.7,-434.8 			"/>
			<polygon class="st3" points="-134.8,-434.8 -133.4,-438.9 -134.5,-435.3 -134.6,-435.2 -134.7,-434.8 -134.7,-434.8 			"/>
			<polygon class="st3" points="-135.6,-434.4 -134.8,-434.8 -134.8,-434.7 			"/>
			<polygon class="st3" points="-135.1,-433.8 -135.4,-434 -135.1,-433.8 			"/>
			<polygon class="st3" points="-135.4,-434 -135.1,-433.8 -135.2,-433.5 -135.2,-433.5 -135.4,-433.9 			"/>
			<polygon class="st3" points="-135.2,-433.5 -135.2,-433.5 -135.2,-433.4 -135.3,-433.6 -135.2,-433.5 			"/>
			<polygon class="st3" points="-135.2,-433.4 -136.2,-430.5 -136.2,-431 -135.3,-433.6 			"/>
			<polygon class="st3" points="-135.6,-433.8 -135.3,-433.6 -136.2,-431 -136.2,-434.1 			"/>
			<polygon class="st3" points="-135.6,-434.4 -134.8,-434.7 -134.8,-434.8 -134.8,-434.8 -134.7,-434.8 -134.7,-434.8 
				-135.1,-433.8 -135.4,-434 -135.6,-434.2 -135.7,-434.3 -135.7,-434.3 			"/>
			<polygon class="st3" points="-135.6,-434.2 -135.4,-434 -135.5,-434 -135.5,-434 			"/>
			<path class="st3" d="M-135.4-429.5c-0.4,0-0.8-0.4-0.8-0.7v-0.2v0l1-2.9l2,3.9H-135.4z"/>
			<polygon class="st3" points="-135.5,-434 -135.5,-434 -135.5,-434 			"/>
			<polygon class="st3" points="-135.5,-434 -135.5,-433.9 -135.5,-434 			"/>
			<polygon class="st3" points="-135.5,-434 -135.5,-434 -136.1,-434.2 -136.1,-434.2 			"/>
			<polygon class="st3" points="-135.5,-434 -136.1,-434.2 -135.7,-434.3 -135.6,-434.2 			"/>
			<path class="st3" d="M-135.7-434.4l-0.5-1v0h0l-2.1-4.1c0.3-2,2-3.5,4.1-3.5c0.7,0,1.4,0.2,2.1,0.5l-0.3,0.8l-0.4,1l-0.6,1.8l0,0
				l-1.4,4.1h0L-135.7-434.4v0.1V-434.4L-135.7-434.4z"/>
			<polygon class="st3" points="-135.7,-434.3 -135.7,-434.3 -135.7,-434.3 			"/>
			<polygon class="st3" points="-135.7,-434.3 -135.6,-434.2 -135.7,-434.3 			"/>
			<path class="st3" d="M-135.7-434.4L-135.7-434.4L-135.7-434.4z"/>
			<polygon class="st3" points="-135.7,-434.3 -135.7,-434.3 -136.1,-434.2 			"/>
			<polygon class="st3" points="-136.2,-435.4 -135.7,-434.4 -135.7,-434.4 -136.2,-435.3 -136.2,-435.3 			"/>
			<polygon class="st3" points="-136.2,-435.3 -135.7,-434.4 -135.8,-434.4 			"/>
			<polygon class="st3" points="-136.1,-434.3 -136.2,-434.4 -136.2,-435.3 -135.8,-434.4 -136.1,-434.2 -136.1,-434.2 
				-136.1,-434.2 -136.2,-434.3 -136.2,-434.3 			"/>
			<polygon class="st3" points="-135.7,-434.4 -135.7,-434.3 -136.1,-434.2 -135.8,-434.4 			"/>
			<path class="st2" d="M-136.4-429.9l0.2-0.6v0.2c0,0.4,0.4,0.7,0.8,0.7h2.2l4.5,8.7h-10.8L-136.4-429.9z"/>
			<polygon class="st3" points="-136.1,-434.2 -136.1,-434.2 -136.1,-434.2 			"/>
			<polygon class="st3" points="-136.1,-434.2 -135.5,-434 -135.5,-433.9 -135.5,-434 -135.4,-434 -135.4,-433.9 -135.2,-433.5 
				-135.3,-433.6 -135.6,-433.8 -136.2,-434.1 -136.2,-434.1 			"/>
			<polygon class="st3" points="-136.1,-434.3 -136.2,-434.3 -136.2,-434.4 			"/>
			<polygon class="st3" points="-136.1,-434.2 -136.1,-434.2 -136.1,-434.2 			"/>
			<polygon class="st3" points="-136.2,-434.2 -136.1,-434.2 -136.2,-434.1 			"/>
			<polygon class="st3" points="-136.1,-434.2 -136.1,-434.2 -136.2,-434.2 -136.2,-434.2 			"/>
			<polygon class="st3" points="-136.1,-434.2 -136.2,-434.2 -136.2,-434.3 			"/>
			<polygon class="st2" points="-136.2,-434.2 -136.2,-434.2 -136.3,-434.2 -136.3,-434.2 -136.3,-434.2 			"/>
			<polygon class="st2" points="-136.2,-431 -136.2,-430.5 -136.2,-430.5 -136.4,-429.9 -139.5,-420.8 -139.7,-420.8 			"/>
			<path class="st2" d="M-136.2-434.1v3.1l-3.5,10.2h-0.2c-0.5,0-1,0-1.5-0.2v-10.7L-136.2-434.1z"/>
			<polygon class="st2" points="-136.2,-434.3 -136.2,-434.2 -136.3,-434.2 -136.2,-434.3 			"/>
			<polygon class="st2" points="-136.2,-434.3 -136.2,-434.3 -136.2,-434.3 			"/>
			<polygon class="st2" points="-136.2,-434.4 -136.2,-434.3 -136.2,-434.3 -136.3,-434.3 -141.4,-435.9 -141.4,-436 			"/>
			<path class="st2" d="M-136.2-435.4v0.1V-435.4C-136.3-435.5-136.2-435.4-136.2-435.4L-136.2-435.4L-136.2-435.4z"/>
			<path class="st2" d="M-136.3-435.5l0.1,0.2L-136.3-435.5C-136.3-435.5-136.3-435.5-136.3-435.5z"/>
			<polygon class="st2" points="-136.2,-434.1 -141.4,-431.6 -141.4,-431.7 -140.3,-432.2 -136.2,-434.1 			"/>
			<polygon class="st2" points="-136.2,-434.1 -140.3,-432.2 -136.6,-434.1 -136.3,-434.2 -136.2,-434.2 			"/>
			<path class="st3" d="M-136.2-435.4C-136.2-435.4-136.3-435.5-136.2-435.4C-136.3-435.5-136.3-435.5-136.2-435.4l-2.1-4
				c0,0,0,0,0,0c0,0,0,0,0,0L-136.2-435.4z"/>
			<polygon class="st2" points="-136.2,-434.3 -136.3,-434.2 -136.3,-434.2 -141.4,-435.9 -141.4,-435.9 -136.3,-434.3 			"/>
			<polygon class="st2" points="-136.3,-434.2 -136.3,-434.2 -136.6,-434.1 -141.4,-431.7 -141.4,-435.9 			"/>
			<polygon class="st2" points="-136.4,-429.9 -139.5,-420.8 -139.5,-420.8 			"/>
			<polygon class="st2" points="-136.6,-434.1 -140.3,-432.2 -141.4,-431.7 -141.4,-431.7 			"/>
			<path class="st3" d="M-136.3-435.5c-1.2-0.8-2.1-2.1-2.1-3.5c0-0.2,0-0.3,0-0.5c0,0,0,0,0,0L-136.3-435.5z"/>
			<path class="st2" d="M-136.2-434.4l-5.2-1.7v-9.5l2.6,5.2l0.4,0.8c0,0,0,0,0,0c0,0.2,0,0.3,0,0.5c0,1.4,0.9,2.8,2.1,3.5l0.1,0.2
				v0V-434.4z"/>
			<path class="st2" d="M-141.4-445.5l3.1,6c0,0,0,0,0,0l-0.4-0.8L-141.4-445.5z"/>
			<path class="st2" d="M-138.3-439.5C-138.3-439.5-138.3-439.5-138.3-439.5l-0.4-0.8L-138.3-439.5z"/>
			<polygon class="st1" points="-139.5,-420.8 -141.4,-415.3 -141.4,-415.4 			"/>
			<polygon class="st1" points="-139.5,-420.8 -141.4,-415.4 -141.4,-415.8 -139.7,-420.8 			"/>
			<path class="st1" d="M-139.7-420.8l-1.7,5v-5.1c0.5,0.1,1,0.2,1.5,0.2H-139.7z"/>
			<polygon class="st2" points="-140.3,-432.2 -141.4,-431.7 -141.4,-431.7 			"/>
			<path class="st2" d="M-141.4-445.5L-141.4-445.5v9.5l-5.4-1.7l-0.3-0.1v-7.2c0-2.3,1.2-4.4,3-5.7l2.2,4.2v0L-141.4-445.5z"/>
			<polygon class="st1" points="-141.4,-415.3 -141.4,-401 -146.3,-401 			"/>
			<polygon class="st1" points="-141.4,-415.8 -141.4,-415.4 -141.4,-415.3 -146.3,-401 -146.5,-401 			"/>
			<path class="st1" d="M-141.4-421v5.1l-5.1,14.8h-9.2v-23.5l8.6-4.3v1C-147.1-424.4-144.6-421.6-141.4-421z"/>
			<path class="st2" d="M-141.4-431.6v10.7c-3.2-0.7-5.7-3.4-5.7-6.8v-1l2.9-1.5l1.9-1L-141.4-431.6z"/>
			<polygon class="st2" points="-141.4,-431.7 -141.4,-431.6 -142.2,-431.2 			"/>
			<polygon class="st2" points="-141.4,-431.7 -141.4,-431.7 -144.2,-430.4 			"/>
			<polygon class="st2" points="-141.4,-435.9 -141.4,-435.9 -147.1,-437.8 			"/>
			<path class="st2" d="M-141.4-451.9v6.4l-0.5-1v0l-2.2-4.2C-143.3-451.3-142.4-451.7-141.4-451.9z"/>
			<path class="st1" d="M-141.4-471.7v19.8c-1,0.2-1.9,0.6-2.7,1.2h0l-10.8-21H-141.4z"/>
			<path class="st2" d="M-141.9-446.5l0.5,1L-141.9-446.5z"/>
			<polygon class="st2" points="-144.1,-450.7 -141.9,-446.5 -144.1,-450.7 			"/>
			<polygon class="st2" points="-142.2,-431.2 -144.2,-430.3 -144.2,-430.3 			"/>
			<polygon class="st2" points="-144.2,-430.4 -141.4,-431.7 -141.4,-431.7 -142.2,-431.2 -144.2,-430.3 			"/>
			<polygon class="st2" points="-147.1,-428.9 -147.1,-437.8 -141.4,-435.9 -141.4,-431.7 -144.2,-430.4 -144.2,-430.3 
				-144.3,-430.3 			"/>
			<polygon class="st2" points="-144.2,-430.3 -147.1,-428.8 -147.1,-428.9 -144.3,-430.3 -144.2,-430.3 			"/>
			<polygon class="st1" points="-146.3,-401 -157.2,-369.1 -157.2,-369.1 			"/>
			<path class="st1" d="M-146.3-401l-10.9,31.9c-0.1,0-0.1,0-0.2,0l10.9-31.8H-146.3z"/>
			<polygon class="st2" points="-147.1,-437.8 -147.1,-437.8 -146.8,-437.8 -141.4,-436 -141.4,-435.9 			"/>
			<polygon class="st1" points="-147.1,-428.9 -147.1,-428.8 -155.7,-424.5 -155.7,-424.5 			"/>
			<polygon class="st1" points="-147.1,-437.8 -147.1,-428.9 -155.7,-424.5 -155.7,-440.6 			"/>
			<polygon class="st1" points="-147.1,-437.8 -147.1,-437.8 -155.7,-440.6 -155.7,-440.6 			"/>
			<path class="st1" d="M-129.5-365.9c-9.7,0.7-19-0.5-27.7-3.3l0,0C-148.5-366.3-139.2-365.1-129.5-365.9c0.6,0,1.1-0.1,1.7-0.2
				C-128.4-366-128.9-365.9-129.5-365.9z"/>
			<path class="st1" d="M-155.7-471.7h0.9l10.8,21c-1.8,1.3-3,3.4-3,5.7v7.2l-8.6-2.8V-471.7L-155.7-471.7z"/>
			<polygon class="st1" points="-157.2,-369.1 -157.2,-369.1 -157.2,-369.1 			"/>
			<path class="st1" d="M-157.2-369.1L-157.2-369.1c-0.1,0-0.1,0-0.2,0v0C-157.3-369.2-157.2-369.2-157.2-369.1z"/>
			<path class="st1" d="M-183.6-384.7c7.4,6.9,16.4,12.3,26.3,15.5v0c0.1,0,0.1,0,0.2,0.1l0,0.1c-1.1-0.4-2.2-0.8-3.3-1.2
				C-169.1-373.5-177-378.5-183.6-384.7z"/>
			<path class="st0" d="M-166.8-531.7c0.3,0.5,0.6,1.1,0.8,1.6C-166.2-530.7-166.5-531.2-166.8-531.7z"/>
			<path class="st0" d="M-168.2-533.7c0.5,0.6,1,1.3,1.4,2C-167.2-532.4-167.6-533.1-168.2-533.7z"/>
			<path class="st0" d="M-168.2-533.7c-0.3-0.3-0.5-0.6-0.8-0.9C-168.7-534.3-168.4-534-168.2-533.7z"/>
			<path class="st0" d="M-170.3-515.2C-170.3-515.2-170.3-515.2-170.3-515.2L-170.3-515.2L-170.3-515.2z"/>
			<rect x="-170.4" y="-515.2" class="st0" width="0" height="0"/>
			<path class="st0" d="M-170.4-515.3c3.5-2.5,5.6-6.6,5.2-11.2c0.4,4.6-1.6,8.7-5.2,11.3h0h0v0c-0.1,0-0.2,0.1-0.3,0.1c0,0,0,0,0,0
				C-170.6-515.1-170.5-515.2-170.4-515.3z"/>
			<path class="st0" d="M-170.4-515.2C-170.4-515.2-170.4-515.2-170.4-515.2c-0.1,0-0.2,0.1-0.3,0.1
				C-170.6-515.1-170.5-515.2-170.4-515.2z"/>
			<path class="st4" d="M-170.7-515.1c0.1,0,0.2-0.1,0.3-0.1c-1.3,1-2.7,1.7-4.3,2.2c-0.1,0-0.1,0-0.2,0
				C-173.4-513.4-171.9-514.1-170.7-515.1C-170.7-515.1-170.7-515.1-170.7-515.1z"/>
			<path class="st4" d="M-175.4-512.9c1.6-0.8,3.2-1.5,4.7-2.2c-1.2,1-2.7,1.6-4.2,2.1C-175.1-512.9-175.2-512.9-175.4-512.9z"/>
			<path class="st0" d="M-174.9-513c-0.1,0-0.3,0.1-0.4,0.1c-0.1,0-0.1,0-0.2,0c0,0,0.1,0,0.1,0C-175.2-512.9-175.1-512.9-174.9-513
				z"/>
			<path class="st0" d="M-178.3-538.4c3.6,0,6.9,1.4,9.3,3.8c0.3,0.3,0.6,0.6,0.8,0.9c0.5,0.6,1,1.3,1.4,2c0.3,0.5,0.5,1.1,0.8,1.6
				c0.4,1.1,0.7,2.3,0.8,3.6c0.4,4.6-1.6,8.7-5.2,11.2c-0.1,0.1-0.2,0.2-0.3,0.3c-1.6,0.7-3.2,1.4-4.7,2.2c-0.5,0.1-1,0.2-1.5,0.2
				c-0.1,0-0.3,0-0.4,0c0,0-0.1,0-0.1,0c-0.2,0-0.4,0-0.6,0c-0.4,0-0.7,0-1.1,0c-6.6-0.3-11.9-5.3-12.5-11.8
				c-0.3-3.7,1.1-7.1,3.4-9.7c0.5-0.6,1.1-1.1,1.8-1.6c0.2-0.1,0.3-0.2,0.5-0.4c0.8-0.6,1.7-1,2.7-1.4c0.4-0.1,0.8-0.3,1.2-0.4
				c0.8-0.2,1.7-0.4,2.6-0.5C-179.1-538.3-178.7-538.4-178.3-538.4z"/>
			<path class="st0" d="M-157.2-369.1c8.7,2.8,18.1,4.1,27.8,3.3c9.2-0.7,17.8-3.2,25.5-6.9c16.7-8.1,29.3-22.5,35.2-39.7v0
				c2.7-8.1,3.9-16.9,3.2-25.9c0-0.2,0-0.4,0-0.6c-0.8-9.1-3.3-17.5-7.3-25.1c0,0,0,0,0,0L-73-464c-0.2-0.3-0.3-0.6-0.5-0.9
				c-0.1-0.2-0.2-0.3-0.3-0.5c-1.6-2.9-3.4-5.7-5.5-8.4c-8.5-11-20.3-19.4-33.7-23.8l0,0.1c0,0-0.1,0-0.1,0
				c-0.4-0.1-0.9-0.3-1.3-0.4c-0.9-0.3-1.7-0.5-2.6-0.7c-7.5-2-15.5-2.8-23.7-2.2c-9.2,0.7-17.7,3.2-25.5,6.9
				c-7.1,3.5-13.5,8.1-18.9,13.5c0,0,0,0,0,0c-7,7-12.5,15.4-15.9,24.6c-3.2,8.7-4.4,18.2-3.7,27.9c0.6,8.7,3,17,6.8,24.3
				c2.1,4.1,4.6,8,7.4,11.5c0.4,0.4,0.7,0.9,1.1,1.3c7.6,9.1,17.5,16.2,28.8,20.5C-159.4-369.8-158.3-369.4-157.2-369.1
				L-157.2-369.1z M-195.3-499.3c5.9-5.3,12.6-9.9,19.9-13.5c0.1,0,0.1,0,0.2,0c0.1,0,0.3-0.1,0.4-0.1c0.1,0,0.1,0,0.2,0
				c1.6-0.4,3-1.2,4.3-2.2c0,0,0,0,0,0h0c0,0,0,0,0,0c8.9-3.8,18.6-6.3,28.7-7c1.3-0.1,2.6-0.2,3.9-0.2c47.8-1.8,89,33.5,93,80.2
				c2.2,25.9-7.5,50.1-24.7,67.5c-1,1-2,2-3,2.9c-1,0.9-1.9,1.7-2.9,2.6c-14,11.8-31.8,19.5-51.6,21.1c-49.4,3.9-92.8-31.8-96.9-80
				c-2.1-25.1,7-48.6,23.2-65.9c1.3-1.4,2.7-2.8,4.1-4.1c0.4-0.3,0.7-0.7,1.1-1C-195.4-499.2-195.4-499.2-195.3-499.3z"/>
			<path class="st0" d="M-179.1-512.6c-6.6-0.3-12-5.3-12.6-11.8c-0.2-3.7,1.2-7.1,3.6-9.7c-2.4,2.6-3.7,6-3.4,9.7
				C-191-517.9-185.6-512.9-179.1-512.6z"/>
			<path class="st1" d="M-184.8-385.9c0.4,0.4,0.8,0.8,1.2,1.2C-184-385.1-184.4-385.5-184.8-385.9z"/>
			<path class="st0" d="M-185.9-536c-0.2,0.1-0.3,0.2-0.5,0.4C-186.2-535.8-186.1-535.9-185.9-536z"/>
			<path class="st0" d="M-195.5-499.2c-0.4,0.3-0.7,0.7-1.1,1C-196.2-498.5-195.8-498.8-195.5-499.2z"/>
			<path class="st1" d="M-196.5-404l40.8-20.6v0.1l-40.7,20.5l-1.1,0.5c0,0,0,0,0-0.1L-196.5-404z"/>
			<path class="st1" d="M-196.5-404l-1,0.4c-3.8-7.4-6.2-15.6-6.8-24.3c-0.8-9.6,0.5-19.1,3.6-27.7l0.6,0.6l44.5,14.4v16L-196.5-404
				z"/>
			<path class="st1" d="M-155.7-401h9.2l-10.9,31.8c-9.9-3.3-18.9-8.6-26.3-15.5c-0.4-0.4-0.8-0.8-1.2-1.2c-0.8-0.7-1.5-1.5-2.2-2.3
				c-3.1-3.3-5.8-6.9-8.1-10.8c0,0,0,0,0,0c-0.6-1-1.1-1.9-1.7-2.9v0c-0.3-0.5-0.5-1-0.8-1.5v0l0.1,0c0,0,0,0,0,0.1l1.1-0.5
				l40.7-20.5V-401z"/>
			<path class="st1" d="M-199.9-455l44.3,14.3v0.1l-44.5-14.4l-0.6-0.6c0-0.1,0-0.1,0.1-0.2L-199.9-455z"/>
			<path class="st0" d="M-188.5-476.8c-5.4,6.2-9.6,13.3-12.4,21c0,0,0,0.1,0,0.1l-0.1-0.1C-198.1-463.4-193.8-470.6-188.5-476.8z"
				/>
			<path class="st1" d="M-166.2-493.8l11.3,22.1h-0.9v0v31l-44.3-14.3l-0.8-0.7c0,0.1,0,0.1-0.1,0.2l-0.1-0.1c0,0,0-0.1,0-0.1
				c2.8-7.7,7-14.8,12.4-21c0.7-0.8,1.5-1.6,2.2-2.5c3.8-4,8.1-7.5,12.7-10.5C-171.1-491.2-168.7-492.6-166.2-493.8z"/>
			<path class="st0" d="M-201-455.8c3.4-9.2,8.9-17.6,15.9-24.6c-0.4,0.4-0.8,0.8-1.1,1.2c-0.8,0.8-1.5,1.6-2.2,2.5
				c-5.4,6.2-9.7,13.3-12.5,21l0.1,0.1c-3.1,8.7-4.4,18-3.6,27.8c0.8,8.7,3.2,16.9,6.8,24.3v0c0.3,0.5,0.5,1,0.8,1.5v0
				c0.5,1,1.1,2,1.7,2.9c0,0,0,0,0,0c1.5,2.4,3.1,4.7,4.8,7c-2.9-3.6-5.4-7.4-7.4-11.5c-3.8-7.4-6.2-15.6-6.8-24.3
				C-205.4-437.6-204.1-447.1-201-455.8z"/>
		</g>
		<g>
			<polyline class="st5" points="-121.4,-441.1 -112.8,-445.1 -73,-463.9 -73,-463.9 -72.8,-464 -72.7,-464.1 			"/>
			<polyline class="st5" points="-128.8,-452 -127.1,-457 -122,-471.7 -113.1,-497.5 -113.1,-497.5 -112.9,-497.7 			"/>
			<polyline class="st5" points="-157.2,-369.1 -157.2,-369.1 -157.2,-369.1 -146.3,-401 -141.4,-415.3 -139.5,-420.8 			"/>
			<polyline class="st5" points="-144.1,-450.7 -154.8,-471.7 -166.2,-493.8 			"/>
			<polyline class="st5" points="-147.1,-437.8 -155.7,-440.6 -200.1,-455 			"/>
			<polyline class="st5" points="-68.6,-412.3 -68.7,-412.3 -68.8,-412.3 -112.8,-426.6 -121.4,-429.4 			"/>
			<polyline class="st5" points="-196.4,-404 -155.7,-424.5 -147.1,-428.8 			"/>
			<polyline class="st5" points="-104,-372.7 -104,-372.7 -118.5,-401 -127.1,-417.7 -128.7,-420.8 			"/>
			<path class="st6" d="M-104-372.7C-104-372.7-104-372.7-104-372.7L-104-372.7c-5.8,2.9-12.1,4.9-18.7,6c-1.7,0.3-3.4,0.5-5.1,0.7
				c-0.6,0.1-1.1,0.1-1.7,0.1c-9.7,0.7-19-0.5-27.7-3.3h0c-0.1,0-0.1,0-0.2,0c-9.9-3.3-18.9-8.6-26.3-15.5c-0.4-0.4-0.8-0.8-1.2-1.2
				c-0.8-0.7-1.5-1.5-2.2-2.3c-0.8-0.8-1.5-1.7-2.3-2.5c-0.4-0.4-0.7-0.9-1.1-1.3c-2.9-3.6-5.4-7.4-7.4-11.5
				c-3.8-7.4-6.2-15.6-6.8-24.3c-0.8-9.7,0.5-19.2,3.7-27.9c3.4-9.2,8.9-17.6,15.9-24.6c0,0,0,0,0,0c3.5-3.5,7.4-6.6,11.6-9.3
				c2.3-1.5,4.8-2.9,7.3-4.1c7.7-3.8,16.3-6.1,25.5-6.9c8.2-0.6,16.2,0.1,23.7,2c0.9,0.2,1.8,0.5,2.6,0.7c0.4,0.1,0.9,0.3,1.3,0.4
				c0,0,0,0,0.1,0v0c3.8,1.2,7.4,2.8,10.8,4.6c0,0,0,0,0,0c1,0.5,2,1.1,2.9,1.6c0,0,0,0,0,0c7.7,4.5,14.5,10.5,20,17.5
				c2,2.6,3.8,5.4,5.5,8.4c0.1,0.2,0.2,0.4,0.3,0.5c0.2,0.3,0.3,0.6,0.5,0.9h0c0,0,0,0,0,0c0.9,1.8,1.8,3.6,2.6,5.4
				c0.1,0.3,0.2,0.6,0.4,0.9c0.3,0.9,0.7,1.7,1,2.6c0.2,0.5,0.3,1,0.5,1.5c1.5,4.7,2.5,9.6,2.9,14.7c0.4,5,0.3,10-0.4,14.8
				c-0.1,0.4-0.1,0.7-0.2,1.1c-0.1,0.9-0.3,1.8-0.5,2.7c-0.4,2.2-1,4.4-1.7,6.6c-0.1,0.4-0.3,0.9-0.4,1.3v0
				c-1.6,4.8-3.8,9.4-6.4,13.8c-0.3,0.5-0.6,0.9-0.9,1.4c-0.9,1.4-1.9,2.8-2.9,4.1C-85.5-384.5-94.1-377.5-104-372.7z"/>
			<path class="st6" d="M-174.9-513c-0.1,0-0.3,0.1-0.4,0.1c-0.1,0-0.1,0-0.2,0c-0.4,0.1-0.9,0.2-1.4,0.2c-0.1,0-0.3,0-0.4,0
				c-0.2,0-0.5,0-0.7,0c-0.4,0-0.7,0-1.1,0c-6.6-0.3-11.9-5.3-12.5-11.8c-0.3-3.7,1.1-7.1,3.4-9.7c0.5-0.6,1.1-1.1,1.8-1.6
				c0.2-0.1,0.3-0.2,0.5-0.4c0.8-0.6,1.7-1,2.7-1.4c0.4-0.1,0.8-0.3,1.2-0.4c0.8-0.2,1.7-0.4,2.6-0.5c0.4,0,0.8,0,1.2,0
				c3.6,0,6.9,1.4,9.3,3.8c0.3,0.3,0.6,0.6,0.8,0.9c0.5,0.6,1,1.3,1.4,2c0.3,0.5,0.5,1.1,0.8,1.6c0.4,1.1,0.7,2.3,0.8,3.6
				c0.4,4.6-1.6,8.7-5.2,11.2c-0.1,0.1-0.2,0.2-0.3,0.3C-171.9-514.1-173.4-513.4-174.9-513z"/>
			<path class="st6" d="M-170.4-515.2L-170.4-515.2L-170.4-515.2L-170.4-515.2c8.9-3.8,18.6-6.3,28.7-7c1.3-0.1,2.6-0.2,3.9-0.2
				c47.8-1.8,89,33.5,93,80.2c2.2,25.9-7.5,50.1-24.7,67.5c-1,1-2,2-3,2.9c-1,0.9-1.9,1.7-2.9,2.6c-14,11.8-31.8,19.6-51.7,21.2
				c-2.5,0.2-5,0.3-7.4,0.3c-46.3,0-85.6-34.6-89.4-80.3c-0.2-2.4-0.3-4.8-0.3-7.2c0-22.5,8.9-43.2,23.6-58.8
				c1.3-1.4,2.7-2.8,4.1-4.1c0.4-0.3,0.7-0.7,1.1-1c0.1,0,0.1-0.1,0.1-0.1c5.9-5.3,12.6-9.8,19.8-13.4"/>
			<polyline class="st7" points="-155.7,-471.7 -155.7,-440.6 -155.7,-440.6 -155.7,-424.5 -155.7,-424.5 -155.7,-401 			"/>
			<polyline class="st7" points="-141.4,-421 -141.4,-415.8 -141.4,-415.4 -141.4,-415.3 -141.4,-401 			"/>
			<line class="st7" x1="-141.4" y1="-471.7" x2="-141.4" y2="-451.9"/>
			<polyline class="st7" points="-127.1,-421 -127.1,-417.7 -127.1,-417.7 -127.1,-417.6 -127.1,-401 			"/>
			<polyline class="st7" points="-127.1,-471.7 -127.1,-457 -127.1,-456.8 -127.1,-451.9 			"/>
			<polyline class="st7" points="-112.8,-471.7 -112.8,-445.2 -112.8,-445.1 -112.8,-426.6 -112.8,-426.6 -112.8,-401 			"/>
			<path class="st8" d="M-127.1-421c-0.5,0.1-1,0.2-1.5,0.2h-0.1h0h0h-10.8h0h-0.2h-0.2c-0.5,0-1,0-1.5-0.2
				c-3.2-0.7-5.7-3.4-5.7-6.8v-1v-0.1v-8.9v-0.1v-7.2c0-2.3,1.2-4.4,3-5.7h0c0.8-0.6,1.7-1,2.7-1.2c0.5-0.1,1-0.1,1.5-0.1h11h0.1
				h0.1c0.5,0,1,0.1,1.5,0.2c3.2,0.7,5.7,3.4,5.7,6.8v3.9v0v11.7v0v1.6C-121.4-424.4-123.9-421.6-127.1-421z"/>
			<polyline class="st9" points="-162.1,-471.7 -155.7,-471.7 -154.8,-471.7 -141.4,-471.7 -127.1,-471.7 -122,-471.7 
				-121.9,-471.7 -112.8,-471.7 -106.4,-471.7 			"/>
			<polyline class="st9" points="-162.1,-401 -155.7,-401 -146.5,-401 -146.3,-401 -141.4,-401 -127.1,-401 -118.5,-401 
				-118.5,-401 -112.8,-401 -106.4,-401 			"/>
		</g>
	</g>
</g>
<path class="st10" d="M-308.6-479.5l-68.5,74.5l-71.3-76.2"/>
<rect x="269.3" y="-501.6" class="st11" width="163.7" height="117"/>
<g>
	<g id="XMLID_3_">
		<g>
		</g>
		<g>
			<path class="st12" d="M-299,346.8c0-5.2-4.3-9.5-9.6-9.5h-139.8c-5.3,0-9.6,4.3-9.6,9.5V440c0,5.2,4.3,9.5,9.6,9.5h139.8
				c5.3,0,9.6-4.3,9.6-9.5V346.8z"/>
			<path class="st12" d="M-458,346.8c0,9,28.3,34,51.3,51.1c0,0,0,0,0,0c13.4,9.9,24.9,17.2,28.1,17.2"/>
			<line class="st12" x1="-349.2" y1="399.3" x2="-299" y2="440"/>
			<line class="st12" x1="-408.1" y1="399.8" x2="-458" y2="440"/>
			<path class="st12" d="M-299,346.8c0,9-28.3,34-51.3,51.1c-0.3,0.2-0.6,0.4-0.9,0.7c-13,9.6-24.1,16.6-27.3,16.6"/>
		</g>
	</g>
</g>
<path class="st13" d="M-1883.7-273.6l-1.1-1.8"/>
<path class="st13" d="M-1878.7-275v-2.1"/>
<path class="st13" d="M-1873.7-273.6l1.1-1.8"/>
<path class="st13" d="M-1870.1-270l1.8-1.1"/>
<path class="st13" d="M-1887.4-270l-1.8-1.1"/>
<path class="st13" d="M-1885.4-261.1c-0.1,0.1-0.2,0.2-0.4,0.2c-0.8,0.6-1.2,1.5-1.2,2.6v9.5c0,1.8,1.5,3.3,3.3,3.3h9.6
	c1.8,0,3.3-1.5,3.3-3.3v-9.5c0-0.9-0.4-1.8-1.1-2.4c-0.6-0.6-1.4-0.9-2.3-0.9h-0.6h-8.5"/>
<path class="st13" d="M-1884.9-261.3c-0.2,0.1-0.3,0.1-0.4,0.2"/>
<path class="st13" d="M-1871.8-260.7l-0.1-4.5c0-3.8-3.1-7-7-7c-3.8,0-7,3.1-7,7v4.1c0,0.1,0,0.2,0.1,0.3"/>
<path class="st13" d="M-1883.1-261.6v-3.6c0-2.3,1.9-4.2,4.2-4.2c1.1,0,2.2,0.4,3,1.2c0.8,0.8,1.2,1.9,1.2,3v3.6"/>
<path class="st13" d="M-1884.9-261.3c0.3-0.1,0.6-0.2,1-0.2"/>
<path class="st13" d="M-1883.9-261.6c0.1,0,0.2,0,0.3,0h0.1h0.4"/>
<path class="st13" d="M-1879.2-253.2l-0.7,2.2h2.2l-0.7-2.2"/>
<g>
	<g id="XMLID_12_">
		<g>
		</g>
		<g>
			<line class="st14" x1="-377.6" y1="-249.3" x2="-377.6" y2="-138.7"/>
			<line class="st14" x1="-377.6" y1="-138.7" x2="-335.5" y2="-180.8"/>
			<line class="st14" x1="-377.6" y1="-138.7" x2="-421.2" y2="-181.7"/>
			<line class="st14" x1="-432.5" y1="-96.6" x2="-324.5" y2="-96.6"/>
		</g>
	</g>
</g>
<g id="XMLID_8_">
	<g>
	</g>
	<g>
		<line class="st15" x1="-172.4" y1="-175.7" x2="-67.5" y2="-175.7"/>
		<line class="st15" x1="-67.5" y1="-175.7" x2="-107.4" y2="-215.7"/>
		<line class="st15" x1="-67.5" y1="-175.7" x2="-108.4" y2="-134.2"/>
		<polyline class="st16" points="-151.3,-113.3 -201,-113.3 -201,-232.6 -151.3,-232.6 		"/>
	</g>
</g>
<g id="XMLID_10_">
	<g>
		<circle class="st1" cx="1158.7" cy="-443.1" r="32.1"/>
		<path class="st17" d="M1190.8-443.1c0-17.7-14.4-32.1-32.1-32.1c-17.7,0-32.1,14.4-32.1,32.1s14.4,32.1,32.1,32.1
			C1176.5-411,1190.8-425.4,1190.8-443.1z M1052.5-443.1c0-11.6,4.7-22.1,12.3-29.7c7.6-7.6,18.1-12.3,29.7-12.3h64.2
			c23.2,0,42,18.8,42,42c0,11.6-4.7,22.1-12.3,29.7c-7.6,7.6-18.1,12.3-29.7,12.3h-64.2C1071.4-401.1,1052.5-419.9,1052.5-443.1z"/>
	</g>
	<g>
		<path class="st18" d="M1158.7-401.1h-64.2c-23.2,0-42-18.8-42-42c0-11.6,4.7-22.1,12.3-29.7c7.6-7.6,18.1-12.3,29.7-12.3h64.2
			c23.2,0,42,18.8,42,42c0,11.6-4.7,22.1-12.3,29.7C1180.8-405.8,1170.3-401.1,1158.7-401.1z"/>
	</g>
</g>
<g id="XMLID_11_">
	<g>
		<circle class="st19" cx="819.8" cy="-443.1" r="32.1"/>
	</g>
	<g>
		<path class="st20" d="M819.8-485.1H884c23.2,0,42,18.8,42,42c0,11.6-4.7,22.1-12.3,29.7c-7.6,7.6-18.1,12.3-29.7,12.3h-64.2
			c-23.2,0-42-18.8-42-42c0-11.6,4.7-22.1,12.3-29.7C797.7-480.4,808.2-485.1,819.8-485.1z"/>
	</g>
</g>
<g>
	<path class="st21" d="M-156.5,110.9h117.5"/>
	<path class="st21" d="M-229.4,110.9l90.4,0.1"/>
	<circle class="st22" cx="-229.4" cy="111" r="8.3"/>
</g>
<g>
	<path class="st21" d="M109.7,110.9h95.5"/>
	<path class="st23" d="M14.8,110.9l90.4,0.1"/>
	<line class="st24" x1="107.9" y1="104.8" x2="107.9" y2="117.2"/>
	<circle class="st22" cx="104.8" cy="110" r="8.3"/>
</g>
<g>
	<path class="st23" d="M339.8,110.9h106.5"/>
	<path class="st23" d="M256,110.9l90.4,0.1"/>
	<circle class="st22" cx="447.7" cy="110" r="8.3"/>
</g>
<g id="XMLID_4_">
	<g>
	</g>
	<g>
		<polyline class="st25" points="598.3,-522.1 598.3,-443.2 598.3,-364.1 		"/>
		<polyline class="st25" points="519.5,-443.2 598.3,-443.2 677.4,-443.2 		"/>
	</g>
</g>
<g id="XMLID_1_">
	<g>
		<path class="st26" d="M107.2-389.6l2.3-7.3L107.2-389.6C107.2-389.6,107.2-389.6,107.2-389.6L107.2-389.6z"/>
		<path class="st26" d="M114.4-380.6l0.7,2.3l0.3,1.1h-12l3.8-12.4c0.7,0.2,1.4,0.3,2.2,0.3c0.7-0.1,1.5-0.1,2.2-0.3L114.4-380.6z"
			/>
		<path class="st26" d="M118.3-398.2c0,4.1-2.8,7.6-6.7,8.6l-2.3-7.3l-2.3,7.3c-3.8-1-6.6-4.5-6.6-8.6c0-4.9,3.9-8.9,8.9-8.9
			C114.3-407.1,118.3-403.1,118.3-398.2z"/>
		<path class="st26" d="M109.4-396.9l2.2,7.3c-0.7,0.2-1.5,0.2-2.2,0.3c-0.8,0-1.5-0.1-2.2-0.3L109.4-396.9z"/>
		<path class="st26" d="M107.2-389.6l-3.8,12.4h12l-0.3-1.1l0.4,1.2h-12.2L107.2-389.6C107.2-389.6,107.2-389.6,107.2-389.6z"/>
	</g>
	<g>
		<line class="st27" x1="82.2" y1="-520.4" x2="76.3" y2="-530.5"/>
		<line class="st27" x1="110" y1="-527.9" x2="110" y2="-539.5"/>
		<line class="st27" x1="137.8" y1="-520.4" x2="143.7" y2="-530.6"/>
		<line class="st27" x1="158.2" y1="-500" x2="168.3" y2="-505.9"/>
		<line class="st27" x1="61.8" y1="-500" x2="51.7" y2="-505.9"/>
		<path class="st27" d="M73.1-433.5c-0.3,0.2-0.7,0.4-1,0.7c-0.3,0.2-0.6,0.5-1,0.7c-4.2,3.4-6.9,8.6-6.9,14.3v52.8
			c0,10.1,8.3,18.4,18.4,18.4h53.6c10.1,0,18.4-8.3,18.4-18.4v-52.8c0-10.1-8.3-18.4-18.4-18.4H85.8"/>
		<path class="st27" d="M75.6-434.8c-0.9,0.4-1.7,0.7-2.4,1.3"/>
		<path class="st27" d="M85.8-438.3v-35.3c0-13,10.6-23.6,23.6-23.6c6.3,0,12.2,2.5,16.7,6.9c4.5,4.5,6.9,10.4,6.9,16.7v2.9
			c0,2.1,0.8,3.9,2.2,5.4c1.4,1.4,3.4,2.2,5.4,2.2c2.1,0,3.9-0.8,5.3-2.3c1.4-1.4,2.3-3.4,2.3-5.3v-2.9c0-21.3-17.4-38.8-38.8-38.8
			s-38.8,17.4-38.8,38.8l0,37.8c0,0.5,0.1,1,0.5,1.5"/>
		<path class="st27" d="M75.6-434.8c1.7-0.7,3.5-1.2,5.4-1.3"/>
		<path class="st27" d="M81-436.1c0.5-0.1,1.1-0.1,1.7-0.1h0.8h2.3h0"/>
		<polyline class="st27" points="114.4,-380.6 111.7,-389.6 109.4,-396.9 107.2,-389.6 103.4,-377.2 115.5,-377.2 115.1,-378.4 		
			"/>
	</g>
</g>
<g>
	<g id="XMLID_9_">
		<g>
		</g>
		<g>
			<polyline class="st15" points="68.9,-199.8 109.3,-238.5 151.1,-198.9 			"/>
			<line class="st15" x1="109.3" y1="-136.6" x2="109.3" y2="-238.5"/>
			<polyline class="st15" points="168.5,-155.2 168.5,-107.3 51.5,-107.3 51.5,-155.2 			"/>
		</g>
	</g>
</g>
<g id="XMLID_6_">
	<g>
		<path class="st1" d="M851.9-193.9v21h0L837-187.8C840.8-191.6,846.1-193.9,851.9-193.9C851.9-193.9,851.9-193.9,851.9-193.9z"/>
		<polygon class="st1" points="851.9,-172.9 851.9,-172.9 851.9,-172.9 		"/>
		<path class="st1" d="M851.9-172.9v21c0,0,0,0,0,0c-5.8,0-11-2.3-14.8-6.1L851.9-172.9L851.9-172.9z"/>
		<path class="st1" d="M830.9-172.9h21l0,0L837-158.1C833.2-161.9,830.9-167.1,830.9-172.9z"/>
		<path class="st1" d="M789.8-172.9c0,6.5-5.3,11.8-11.8,11.8c-6.5,0-11.8-5.3-11.8-11.8s5.3-11.8,11.8-11.8
			C784.5-184.7,789.8-179.4,789.8-172.9z"/>
		<path class="st1" d="M866.7-187.8c3.8,3.8,6.1,9,6.1,14.8c0,0,0,0,0,0h-21L866.7-187.8z"/>
		<path class="st1" d="M837-187.8l14.9,14.9h-21c0,0,0,0,0,0C830.9-178.7,833.2-184,837-187.8z"/>
		<path class="st1" d="M851.9-172.9h21c0,5.8-2.4,11.1-6.2,14.8L851.9-172.9L851.9-172.9z"/>
		<circle class="st1" cx="851.9" cy="-99" r="11.8"/>
		<path class="st1" d="M916-120.7c0,6.5-5.3,11.8-11.8,11.8c-6.5,0-11.8-5.3-11.8-11.8c0-3.3,1.3-6.2,3.5-8.3
			c2.1-2.2,5.1-3.5,8.4-3.5C910.7-132.5,916-127.2,916-120.7z"/>
		<path class="st1" d="M851.9-172.9l14.8,14.8c-3.8,3.8-9,6.1-14.8,6.1V-172.9z"/>
		<path class="st1" d="M916-225.2c0,6.5-5.3,11.8-11.8,11.8c-3.3,0-6.2-1.3-8.4-3.5c-2.1-2.1-3.5-5.1-3.5-8.4
			c0-6.5,5.3-11.8,11.8-11.8C910.7-237,916-231.7,916-225.2z"/>
		<polygon class="st1" points="851.9,-172.9 851.9,-172.9 851.9,-172.9 		"/>
		<path class="st1" d="M851.9-172.9v-21c5.8,0,11,2.4,14.8,6.2L851.9-172.9z"/>
		<path class="st1" d="M808-216.8c-2.1,2.1-5.1,3.5-8.3,3.5c-6.5,0-11.8-5.3-11.8-11.8s5.3-11.8,11.8-11.8c6.5,0,11.8,5.3,11.8,11.8
			C811.4-221.9,810.1-218.9,808-216.8z"/>
		<path class="st1" d="M808-129c2.1,2.1,3.5,5.1,3.5,8.4c0,6.5-5.3,11.8-11.8,11.8c-6.5,0-11.8-5.3-11.8-11.8s5.3-11.8,11.8-11.8
			C802.9-132.5,805.8-131.2,808-129z"/>
		<path class="st1" d="M863.7-246.9c0,6.5-5.3,11.8-11.8,11.8c-6.5,0-11.8-5.3-11.8-11.8c0-6.5,5.3-11.8,11.8-11.8
			C858.4-258.7,863.7-253.4,863.7-246.9z"/>
		<path class="st1" d="M914-172.9c0-6.5,5.3-11.8,11.8-11.8c6.5,0,11.8,5.3,11.8,11.8s-5.3,11.8-11.8,11.8
			C919.3-161.1,914-166.4,914-172.9z"/>
	</g>
	<g>
		<line class="st28" x1="872.9" y1="-172.9" x2="914" y2="-172.9"/>
		<line class="st28" x1="789.8" y1="-172.9" x2="830.9" y2="-172.9"/>
		<path class="st28" d="M925.8-161.1c6.5,0,11.8-5.3,11.8-11.8s-5.3-11.8-11.8-11.8c-6.5,0-11.8,5.3-11.8,11.8
			S919.3-161.1,925.8-161.1z"/>
		<path class="st28" d="M777.9-161.1c6.5,0,11.8-5.3,11.8-11.8s-5.3-11.8-11.8-11.8c-6.5,0-11.8,5.3-11.8,11.8
			S771.4-161.1,777.9-161.1z"/>
		<line class="st28" x1="866.7" y1="-158.1" x2="895.8" y2="-129"/>
		<line class="st28" x1="808" y1="-216.8" x2="837" y2="-187.8"/>
		<path class="st28" d="M904.1-108.8c6.5,0,11.8-5.3,11.8-11.8s-5.3-11.8-11.8-11.8c-3.3,0-6.2,1.3-8.4,3.5
			c-2.1,2.1-3.5,5.1-3.5,8.3C892.3-114.1,897.6-108.8,904.1-108.8z"/>
		<path class="st28" d="M799.6-213.3c3.3,0,6.2-1.3,8.3-3.5c2.2-2.1,3.5-5.1,3.5-8.4c0-6.5-5.3-11.8-11.8-11.8
			c-6.5,0-11.8,5.3-11.8,11.8S793.1-213.3,799.6-213.3z"/>
		<line class="st28" x1="851.9" y1="-151.9" x2="851.9" y2="-110.8"/>
		<line class="st28" x1="851.9" y1="-235" x2="851.9" y2="-193.9"/>
		<circle class="st28" cx="851.9" cy="-99" r="11.8"/>
		<path class="st28" d="M851.9-235c6.5,0,11.8-5.3,11.8-11.8c0-6.5-5.3-11.8-11.8-11.8c-6.5,0-11.8,5.3-11.8,11.8
			C840-240.3,845.3-235,851.9-235z"/>
		<line class="st28" x1="837" y1="-158.1" x2="808" y2="-129"/>
		<line class="st28" x1="895.8" y1="-216.8" x2="866.7" y2="-187.8"/>
		<path class="st28" d="M799.6-108.8c6.5,0,11.8-5.3,11.8-11.8c0-3.3-1.3-6.2-3.5-8.4c-2.1-2.2-5.1-3.5-8.4-3.5
			c-6.5,0-11.8,5.3-11.8,11.8S793.1-108.8,799.6-108.8z"/>
		<path class="st28" d="M904.1-213.3c6.5,0,11.8-5.3,11.8-11.8s-5.3-11.8-11.8-11.8c-6.5,0-11.8,5.3-11.8,11.8
			c0,3.3,1.3,6.2,3.5,8.4C897.9-214.7,900.9-213.3,904.1-213.3z"/>
		<path class="st28" d="M837-158.1c3.8,3.8,9,6.1,14.8,6.1c0,0,0,0,0,0c5.8,0,11-2.3,14.8-6.1c3.8-3.8,6.1-9,6.2-14.8c0,0,0,0,0,0
			c0-5.8-2.3-11-6.1-14.8c-3.8-3.8-9-6.2-14.8-6.2c0,0,0,0,0,0c-5.8,0-11,2.4-14.9,6.2c-3.8,3.8-6.1,9.1-6.1,14.8c0,0,0,0,0,0
			C830.9-167.1,833.2-161.9,837-158.1z"/>
	</g>
</g>
<g>
	<path class="st29" d="M-353.4,128.8l-6.3,6.3l-5.9-6l3.1-3.1l3.1-3.1L-353.4,128.8z"/>
	<path class="st30" d="M-442.8,45.7c-22.2,22.2-22.2,58.2,0,80.3c22.2,22.2,58.2,22.2,80.3,0c22.2-22.2,22.2-58.2,0-80.3
		C-384.6,23.5-420.6,23.5-442.8,45.7z"/>
	<path class="st30" d="M-371.7,116.8c-17.1,17.1-44.8,17.1-61.8,0c-17.1-17.1-17.1-44.8,0-61.8c17.1-17.1,44.8-17.1,61.8,0
		C-354.6,72-354.6,99.7-371.7,116.8z"/>
	<path class="st30" d="M-353.3,128.8c2.6-1.3,4.9-1.1,6.4,0.3l47.7,44.8l0.2,0.2c2.6,2.6,1.5,7.8-3,12.4c-4.6,4.6-9.8,5.6-12.4,3
		l-0.2-0.2l-44.8-47.7c-1.4-1.4-1.6-3.8-0.3-6.4L-353.3,128.8z"/>
	<path class="st30" d="M-359.7,135.1l-5.9-6l3.1-3.1l3.1-3.1l6,5.9L-359.7,135.1z"/>
</g>
<g>
	<g>
		<defs>
			<rect id="SVGID_1_" x="506.8" y="18.3" width="183.4" height="183.4"/>
		</defs>
		<clipPath id="SVGID_2_">
			<use xlink:href="#SVGID_1_"  style="overflow:visible;"/>
		</clipPath>
		<g class="st31">
			<path class="st32" d="M598.5,199.7c49.6,0,89.8-40.2,89.8-89.7c0-49.6-40.2-89.7-89.8-89.7c-49.6,0-89.8,40.2-89.8,89.7
				C508.7,159.6,548.9,199.7,598.5,199.7z"/>
			<path class="st33" d="M621.3,78.3c0,7.8-3.9,14.8-10,18.9c-3.6,2.5-8,3.9-12.7,3.9c-4.7,0-9.1-1.4-12.8-3.9
				c-6.1-4.1-10-11-10-18.9c0-12.6,10.2-22.8,22.8-22.8C611.1,55.5,621.3,65.7,621.3,78.3z"/>
			<path class="st34" d="M633.5,148.9c0,9.9-15.7,15.6-35,15.6c-19.4,0-35-5.7-35-15.6c0.5-7.4,0.6-15.4,0.8-22.7
				c0.4-21.3,21.4-29,21.4-29c3.6,2.5,8,3.9,12.8,3.9c4.7,0,9.1-1.4,12.7-3.9c0.6,0.1,21.4,4.3,21.4,28.6
				C632.7,133.7,633,141.7,633.5,148.9z"/>
		</g>
	</g>
</g>
<path class="st35" d="M-455.4,426v0.5V442"/>
<path class="st35" d="M1049.7,142.6v0.5v15.6"/>
<g id="XMLID_13_">
	<g>
		<path class="st36" d="M1126.6,21c49.2,0,89,39.9,89,89c0,49.2-39.9,89.1-89,89.1c-49.2,0-89-39.9-89-89.1
			C1037.6,60.8,1077.5,21,1126.6,21z M1157.8,145.6v-9.5h-45.7l24.4-26.5c2.4-2.5,4.6-5,6.5-7.5c2.1-2.5,4-5.1,5.6-7.7
			c1.6-2.6,2.7-5.2,3.7-7.8c0.8-2.7,1.3-5.4,1.3-8.1c0-3.6-0.6-7-1.8-10.1c-1.3-3.1-3.1-5.8-5.4-8c-2.4-2.3-5.4-4-8.8-5.3
			c-3.4-1.3-7.3-1.9-11.5-1.9c-4.7,0-8.8,0.8-12.5,2.3c-3.7,1.5-6.7,3.5-9.3,6.1c-2.6,2.5-4.4,5.5-5.8,9c-1.3,3.4-2,7-2,10.8h11.7
			c0-2.8,0.4-5.4,1.1-7.7c0.7-2.3,1.9-4.3,3.3-5.9c1.6-1.6,3.3-2.8,5.6-3.7c2.3-0.9,4.8-1.3,8-1.3c2.4,0,4.7,0.4,6.7,1.3
			c2,0.8,3.7,2,5.1,3.5c1.4,1.5,2.4,3.2,3.1,5.2c0.7,2,1.1,4.1,1.1,6.3c0,1.8-0.3,3.6-0.7,5.4c-0.4,1.7-1.3,3.5-2.3,5.4
			c-1.1,2-2.6,4.1-4.4,6.4c-1.7,2.3-4,4.9-6.7,7.9l-29.8,33.2v8.3H1157.8z"/>
		<path class="st35" d="M1157.8,136.2v9.5h-59.7v-8.3l29.8-33.2c2.7-3,5-5.6,6.7-7.9c1.9-2.3,3.3-4.4,4.4-6.4c1-1.9,1.8-3.7,2.3-5.4
			c0.4-1.8,0.7-3.6,0.7-5.4c0-2.3-0.4-4.4-1.1-6.3c-0.7-2-1.7-3.7-3.1-5.2c-1.4-1.5-3.1-2.6-5.1-3.5c-2-0.9-4.3-1.3-6.7-1.3
			c-3.1,0-5.7,0.4-8,1.3c-2.3,0.9-4,2.1-5.6,3.7c-1.4,1.6-2.6,3.6-3.3,5.9c-0.7,2.3-1.1,4.9-1.1,7.7h-11.7c0-3.8,0.7-7.4,2-10.8
			c1.4-3.4,3.3-6.4,5.8-9c2.6-2.6,5.6-4.6,9.3-6.1c3.7-1.5,7.8-2.3,12.5-2.3c4.3,0,8.1,0.7,11.5,1.9c3.4,1.3,6.4,3,8.8,5.3
			c2.3,2.3,4.1,4.9,5.4,8c1.3,3.1,1.8,6.4,1.8,10.1c0,2.7-0.4,5.4-1.3,8.1c-1,2.6-2.1,5.2-3.7,7.8c-1.6,2.6-3.4,5.2-5.6,7.7
			c-2,2.5-4.1,5-6.5,7.5l-24.4,26.5H1157.8z"/>
	</g>
	<g>
		<path class="st37" d="M1126.6,21c49.2,0,89,39.9,89,89c0,49.2-39.9,89.1-89,89.1c-49.2,0-89-39.9-89-89.1
			C1037.6,60.8,1077.5,21,1126.6,21z"/>
	</g>
</g>
<g>
	<path class="st35" d="M915.6,151.1v16.1c0,15.6-28.5,28.1-63.7,28.1c-35.3,0-63.8-12.6-63.8-28.1v-15.6c0.1,2.4,0.9,4.8,2.4,7
		c0.1,0.2,0.2,0.3,0.3,0.5c7.8,11.6,32.2,20.1,61.1,20.1s53.3-8.5,61.1-20.1c0.1-0.2,0.2-0.3,0.3-0.5
		C914.9,156.3,915.6,153.7,915.6,151.1z"/>
	<path class="st35" d="M791.4,142.1c3.4-30.9,14.4-61.7,14.4-61.7h0.1c-0.1,0.5-0.2,1.1-0.2,1.7c0,10.9,21.1,19.6,46,19.6
		s46-8.8,46-19.6c0-0.6-0.1-1.1-0.2-1.7h0.2c0,0,11.2,30.8,14.4,61.7c0.6,5.5,1,11.1,1,16.4c-0.1,0.2-0.2,0.3-0.3,0.5
		c-7.8,11.6-32.2,20.1-61.1,20.1s-53.3-8.5-61.1-20.1c-0.1-0.2-0.2-0.3-0.3-0.5h0.1C790.5,153.2,790.9,147.7,791.4,142.1z"/>
	<path class="st35" d="M897.7,80.5c0.1,0.6,0.2,1.1,0.2,1.7c0,10.9-21.1,19.6-46,19.6c-24.9,0-46-8.8-46-19.7c0-0.6,0.1-1.1,0.2-1.7
		c2.1-10.1,22.2-18.1,45.8-18.1C875.5,62.5,895.7,70.4,897.7,80.5z"/>
	<path class="st35" d="M788.1,167.2c0,15.6,28.5,28.1,63.8,28.1c35.3,0,63.7-12.6,63.7-28.1"/>
	<path class="st38" d="M788.1,167.2c0,15.6,28.5,28.1,63.8,28.1c35.3,0,63.7-12.6,63.7-28.1"/>
	<path class="st35" d="M915.6,151.1c0,2.6-0.8,5.2-2.4,7.5c-0.1,0.2-0.2,0.3-0.3,0.5c-7.8,11.6-32.2,20.1-61.1,20.1
		s-53.3-8.5-61.1-20.1c-0.1-0.2-0.2-0.3-0.3-0.5c-1.5-2.2-2.2-4.6-2.4-7c0-0.2,0-0.3,0-0.5c0-3.2,1.1-6.2,3.4-9c0,0,0-0.1,0.1-0.1"
		/>
	<path class="st38" d="M915.6,151.1c0,2.6-0.8,5.2-2.4,7.5c-0.1,0.2-0.2,0.3-0.3,0.5c-7.8,11.6-32.2,20.1-61.1,20.1
		s-53.3-8.5-61.1-20.1c-0.1-0.2-0.2-0.3-0.3-0.5c-1.5-2.2-2.2-4.6-2.4-7c0-0.2,0-0.3,0-0.5c0-3.2,1.1-6.2,3.4-9c0,0,0-0.1,0.1-0.1"
		/>
	<path class="st35" d="M912.2,142.1C912.3,142.1,912.3,142.2,912.2,142.1c2.2,2.9,3.4,5.9,3.4,9"/>
	<path class="st38" d="M912.2,142.1C912.3,142.1,912.3,142.2,912.2,142.1c2.2,2.9,3.4,5.9,3.4,9"/>
	<path class="st39" d="M806,80.5c-0.1,0.5-0.2,1.1-0.2,1.7c0,10.9,21.1,19.6,46,19.6c24.9,0,46-8.8,46-19.6c0-0.6-0.1-1.1-0.2-1.7
		c-2.1-10.1-22.2-18.1-45.8-18.1C828.3,62.5,808,70.4,806,80.5z"/>
	<path class="st35" d="M897.9,80.5c0,0,11.2,30.8,14.4,61.7c0.6,5.5,1,11.1,1,16.4"/>
	<path class="st38" d="M897.9,80.5c0,0,11.2,30.8,14.4,61.7c0.6,5.5,1,11.1,1,16.4"/>
	<path class="st35" d="M805.9,80.5c0,0-11.1,30.8-14.4,61.7c-0.6,5.6-1,11.1-1,16.6"/>
	<path class="st38" d="M805.9,80.5c0,0-11.1,30.8-14.4,61.7c-0.6,5.6-1,11.1-1,16.6"/>
	<path class="st35" d="M915.6,151.1v16.1V151.1z"/>
	<path class="st38" d="M915.6,151.1v16.1"/>
	<path class="st35" d="M788.1,151.1v0.5v15.6"/>
	<path class="st38" d="M788.1,151.1v0.5v15.6"/>
	<path class="st38" d="M818.7,47.6l-7.1-12.1"/>
	<path class="st38" d="M851.9,38.7v-14"/>
	<path class="st38" d="M885.1,47.6l7-12.1"/>
	<path class="st38" d="M909.4,71.9l12.1-7"/>
	<path class="st38" d="M794.3,71.9l-12.1-7"/>
</g>
<text transform="matrix(1 0 0 1 -488.4803 -562.8227)" class="st1" style="font-family:'Roboto-Bold'; font-size:12px;">seta</text>
<text transform="matrix(1 0 0 1 -244.24 -562.8227)" class="st1" style="font-family:'Roboto-Bold'; font-size:12px;">logo</text>
<text transform="matrix(1 0 0 1 2.848487e-04 -562.8227)" class="st1" style="font-family:'Roboto-Bold'; font-size:12px;">público</text>
<text transform="matrix(1 0 0 1 241.1877 -562.8227)" class="st1" style="font-family:'Roboto-Bold'; font-size:12px;">privado</text>
<text transform="matrix(1 0 0 1 488.4808 -562.8227)" class="st1" style="font-family:'Roboto-Bold'; font-size:12px;">adicionar</text>
<text transform="matrix(1 0 0 1 741.8802 -562.8227)" class="st1" style="font-family:'Roboto-Bold'; font-size:12px;">desligado</text>
<text transform="matrix(1 0 0 1 1016.6497 -562.8227)" class="st1" style="font-family:'Roboto-Bold'; font-size:12px;">ligado</text>
<text transform="matrix(1 0 0 1 -488.4803 -294.3595)" class="st1" style="font-family:'Roboto-Bold'; font-size:12px;">baixar</text>
<text transform="matrix(1 0 0 1 -244.24 -294.3595)" class="st1" style="font-family:'Roboto-Bold'; font-size:12px;">enviar</text>
<text transform="matrix(1 0 0 1 2.848487e-04 -294.3595)" class="st1" style="font-family:'Roboto-Bold'; font-size:12px;">subir anexo</text>
<text transform="matrix(1 0 0 1 241.1877 -294.3595)" class="st1" style="font-family:'Roboto-Bold'; font-size:12px;">informação</text>
<text transform="matrix(1 0 0 1 488.4808 -294.3595)" class="st1" style="font-family:'Roboto-Bold'; font-size:12px;">documentos</text>
<text transform="matrix(1 0 0 1 741.8802 -294.3595)" class="st1" style="font-family:'Roboto-Bold'; font-size:12px;">eventos relacionados</text>
<text transform="matrix(1 0 0 1 1016.6497 -294.3595)" class="st1" style="font-family:'Roboto-Bold'; font-size:12px;">indicadores relacionados</text>
<text transform="matrix(1 0 0 1 -488.4803 -13.4142)" class="st1" style="font-family:'Roboto-Bold'; font-size:12px;">análise</text>
<text transform="matrix(1 0 0 1 -488.4803 268.3319)" class="st1" style="font-family:'Roboto-Bold'; font-size:12px;">e-mail</text>
<text transform="matrix(1 0 0 1 -244.24 -13.4142)" class="st1" style="font-family:'Roboto-Bold'; font-size:12px;">sensibilidade baixa</text>
<text transform="matrix(1 0 0 1 2.848487e-04 -13.4142)" class="st1" style="font-family:'Roboto-Bold'; font-size:12px;">sensibilidade média</text>
<text transform="matrix(1 0 0 1 241.1877 -13.4142)" class="st1" style="font-family:'Roboto-Bold'; font-size:12px;">sensibilidade alta</text>
<text transform="matrix(1 0 0 1 488.4808 -13.4142)" class="st1" style="font-family:'Roboto-Bold'; font-size:12px;">perfil</text>
<text transform="matrix(1 0 0 1 741.8802 -13.4142)" class="st1" style="font-family:'Roboto-Bold'; font-size:12px;">alerta</text>
<text transform="matrix(1 0 0 1 1016.6497 -13.4142)" class="st1" style="font-family:'Roboto-Bold'; font-size:12px;">notificações</text>
<g>
	<g id="XMLID_7_">
		<g>
			<path class="st40" d="M351.2-266.5c51.7,0,93.6,41.9,93.6,93.6s-41.9,93.6-93.6,93.6s-93.6-41.9-93.6-93.6
				S299.5-266.5,351.2-266.5z M385-199.3c0-9.4-2.9-16.6-8.8-21.8c-5.9-5.1-14.1-7.7-24.7-7.7c-10.5,0-18.8,2.7-24.9,8.1
				s-9.2,12.9-9.3,22.5h21.8c0.1-4,1.3-7.2,3.5-9.5c2.2-2.3,5.2-3.4,8.9-3.4c7.8,0,11.7,4.2,11.7,12.7c0,2.8-0.8,5.5-2.3,8
				c-1.5,2.5-4.5,5.8-9,9.9c-4.5,4-7.7,8.1-9.4,12.3c-1.7,4.2-2.5,9.8-2.5,16.8h19.2l0.3-4.6c0.5-4.9,2.7-9.2,6.5-12.9l6.1-5.8
				c4.8-4.6,8.1-8.8,10-12.6C384.1-191,385-195.1,385-199.3z M358.8-120.2c2.2-2.1,3.4-4.9,3.4-8.2c0-3.3-1.1-6.1-3.4-8.3
				c-2.3-2.2-5.2-3.3-8.8-3.3c-3.6,0-6.5,1.1-8.8,3.3c-2.3,2.2-3.4,4.9-3.4,8.3c0,3.3,1.1,6,3.3,8.2c2.2,2.1,5.2,3.2,8.8,3.2
				C353.7-117,356.6-118.1,358.8-120.2z"/>
			<path class="st1" d="M376.2-221.1c5.9,5.1,8.8,12.4,8.8,21.8c0,4.3-1,8.3-2.9,12.1c-1.9,3.8-5.2,8-10,12.6l-6.1,5.8
				c-3.8,3.7-6,7.9-6.5,12.9l-0.3,4.6H340c0-7,0.9-12.6,2.5-16.8c1.7-4.2,4.8-8.3,9.4-12.3c4.5-4,7.5-7.3,9-9.9
				c1.5-2.5,2.3-5.2,2.3-8c0-8.5-3.9-12.7-11.7-12.7c-3.7,0-6.7,1.1-8.9,3.4c-2.2,2.3-3.4,5.4-3.5,9.5h-21.8
				c0.1-9.6,3.2-17.1,9.3-22.5s14.4-8.1,24.9-8.1C362.1-228.8,370.4-226.2,376.2-221.1z"/>
			<path class="st1" d="M362.2-128.4c0,3.3-1.1,6-3.4,8.2c-2.2,2.1-5.2,3.2-8.8,3.2c-3.7,0-6.6-1.1-8.8-3.2
				c-2.2-2.1-3.3-4.9-3.3-8.2c0-3.3,1.1-6.1,3.4-8.3c2.3-2.2,5.2-3.3,8.8-3.3c3.6,0,6.5,1.1,8.8,3.3
				C361.1-134.5,362.2-131.7,362.2-128.4z"/>
		</g>
		<g>
		</g>
	</g>
</g>
<g id="XMLID_76_">
	<g>
	</g>
	<g>
		<polyline class="st41" points="1228.6,-90.7 1228.5,-90.7 1217.6,-90.7 1197.5,-90.7 1161.1,-90.7 1142.8,-90.7 1106.4,-90.7 
			1088.1,-90.7 1051.7,-90.7 1032.9,-90.7 1032.9,-252.3 1032.9,-263.3 1024.7,-252.3 1032.9,-252.3 1041.1,-252.3 1032.9,-263.3 		
			"/>
		<polyline class="st41" points="1228.6,-90.8 1217.6,-98.9 1217.6,-90.7 1217.6,-82.5 1228.5,-90.7 1228.6,-90.8 		"/>
		<polyline class="st41" points="1051.7,-90.7 1051.7,-229.2 1088.1,-229.2 1088.1,-90.7 		"/>
		<polyline class="st41" points="1106.4,-90.7 1106.4,-191.2 1142.8,-191.2 1142.8,-90.7 		"/>
		<polyline class="st41" points="1161.1,-90.7 1161.1,-159.9 1197.5,-159.9 1197.5,-90.7 		"/>
	</g>
</g>
<g id="XMLID_75_">
	<g>
	</g>
	<g>
		<polygon class="st42" points="659.7,-214.7 659.7,-214.7 659.7,-87.1 537.2,-87.1 537.2,-258.7 615.8,-258.7 		"/>
		<polyline class="st42" points="615.8,-258.7 615.8,-214.7 659.7,-214.7 659.7,-214.7 		"/>
	</g>
</g>
<g id="XMLID_5_">
	<g>
		<path class="st26" d="M343.8-379.6l4.2-13.8c0.8,0.2,1.6,0.3,2.5,0.3s1.7-0.1,2.5-0.3l4.2,13.8H343.8z"/>
		<path class="st26" d="M340.7-402.9c0-5.4,4.4-9.9,9.9-9.9c5.4,0,9.9,4.4,9.9,9.9c0,4.6-3.1,8.4-7.4,9.5l-2.5-8.1l-2.5,8.1
			C343.8-394.5,340.7-398.3,340.7-402.9z"/>
	</g>
	<g>
		<line class="st27" x1="320.3" y1="-519.3" x2="313.8" y2="-530.5"/>
		<line class="st27" x1="351.2" y1="-527.5" x2="351.2" y2="-540.5"/>
		<line class="st27" x1="382" y1="-519.3" x2="388.5" y2="-530.5"/>
		<line class="st27" x1="404.6" y1="-496.7" x2="415.9" y2="-503.2"/>
		<line class="st27" x1="297.8" y1="-496.7" x2="286.5" y2="-503.2"/>
		<path class="st27" d="M310.3-442c-0.8,0.5-1.5,1-2.2,1.5c-4.6,3.7-7.6,9.5-7.6,15.9l0,58.5c0,11.2,9.2,20.4,20.4,20.4h59.4
			c11.2,0,20.4-9.2,20.4-20.4l0-58.5c0-5.9-2.5-11.2-6.5-14.9c-3.6-3.4-8.6-5.5-13.9-5.5h-3.5h-52.3"/>
		<path class="st27" d="M313-443.4c-0.9,0.4-1.8,0.9-2.7,1.4"/>
		<path class="st27" d="M394.2-439.5l-0.7-27.9c0-23.7-19.3-43-43-43c-23.7,0-43,19.3-43,43l0,25.2c0,0.6,0.1,1.2,0.5,1.7"/>
		<path class="st27" d="M324.4-445l0-22.4c0-14.4,11.7-26.1,26.1-26.1c7,0,13.5,2.7,18.5,7.7c4.9,4.9,7.7,11.5,7.7,18.5l0,22.4"/>
		<path class="st27" d="M313-443.4c1.9-0.8,3.9-1.3,6.1-1.5"/>
		<path class="st27" d="M319-444.9c0.6-0.1,1.2-0.1,1.8-0.1l0.9,0h2.7"/>
		<polygon class="st27" points="353,-393.4 350.5,-401.4 348.1,-393.4 343.8,-379.6 357.3,-379.6 		"/>
	</g>
</g>
</svg>
